<svg width="45" height="90" viewBox="0 0 45 90" fill="none" xmlns="http://www.w3.org/2000/svg">
<path fill-rule="evenodd" clip-rule="evenodd" d="M37 0H0V90H37C41.4183 90 45 86.4183 45 82V8C45 3.58172 41.4183 0 37 0ZM22.7643 73.6358L22.8398 67.6695L21.3067 67.6501L21.2312 73.6164L16.3683 73.5549L16.456 66.6219L14.9132 66.6023L14.8017 75.4102L29.0194 75.5901L29.0431 73.7153L22.7643 73.6358ZM20.9813 64.804C21.803 65.218 22.7314 65.4316 23.7664 65.4447L23.8934 65.4463C25.5339 65.4671 26.8577 65.0411 27.8649 64.1683C28.8722 63.2891 29.3849 62.1334 29.4031 60.7012C29.4151 59.7507 29.1979 58.9081 28.7514 58.1732C28.305 57.4318 27.6774 56.8607 26.8686 56.4598C26.0534 56.0523 25.1315 55.8421 24.1029 55.8291L23.976 55.8275C22.3225 55.8065 20.9921 56.2357 19.9848 57.115C18.9776 57.9877 18.4649 59.1434 18.4467 60.5821C18.4349 61.513 18.649 62.3459 19.0889 63.0807C19.529 63.8089 20.1598 64.3834 20.9813 64.804ZM26.8365 62.8564C26.1201 63.3877 25.176 63.646 24.0042 63.6312C22.6827 63.6145 21.6706 63.3282 20.968 62.7724C20.2653 62.2166 19.9196 61.4927 19.9309 60.6009C19.9424 59.6895 20.313 58.965 21.0425 58.4273C21.7656 57.883 22.7065 57.6182 23.8653 57.6328C25.1607 57.6492 26.1663 57.9322 26.8821 58.4816C27.5914 59.031 27.9402 59.7646 27.9286 60.6825C27.917 61.5939 27.553 62.3185 26.8365 62.8564ZM29.2992 53.4727L29.322 51.6662L14.3232 51.4765L14.3004 53.283L29.2992 53.4727ZM29.3607 48.6098L29.3836 46.8033L14.3848 46.6136L14.3619 48.4201L29.3607 48.6098ZM21.2487 43.6728C22.0703 44.0869 22.9987 44.3005 24.0338 44.3136L24.1607 44.3152C25.8012 44.336 27.1251 43.91 28.1323 43.0372C29.1396 42.158 29.6523 41.0022 29.6704 39.5701C29.6824 38.6196 29.4652 37.777 29.0187 37.0421C28.5723 36.3007 27.9448 35.7296 27.136 35.3287C26.3207 34.9212 25.3988 34.711 24.3703 34.6979L24.2433 34.6963C22.5898 34.6754 21.2594 35.1046 20.2521 35.9838C19.2449 36.8566 18.7322 38.0123 18.714 39.451C18.7022 40.3819 18.9163 41.2148 19.3563 41.9495C19.7963 42.6778 20.4271 43.2523 21.2487 43.6728ZM27.1039 41.7253C26.3875 42.2566 25.4434 42.5149 24.2716 42.5C22.9501 42.4833 21.938 42.1971 21.2353 41.6413C20.5327 41.0854 20.187 40.3616 20.1983 39.4698C20.2098 38.5584 20.5803 37.8338 21.3098 37.2962C22.0329 36.7519 22.9738 36.4871 24.1326 36.5017C25.4281 36.5181 26.4337 36.801 27.1495 37.3505C27.8587 37.8999 28.2075 38.6335 28.1959 39.5514C28.1844 40.4628 27.8204 41.1874 27.1039 41.7253ZM19.143 20.9784L27.1929 23.1116L19.0856 25.519L19.0672 26.974L26.9456 29.5348L19.0097 31.5146L18.987 33.3114L29.5914 30.3789L29.6099 28.9142L21.6343 26.313L29.674 23.8462L29.6925 22.3815L19.1659 19.1719L19.143 20.9784ZM25.7464 17.0186L25.767 15.3879L15.5645 15.1221L15.5405 17.0165L25.7464 17.0186ZM28.1201 16.9803C28.3132 17.1585 28.5562 17.2495 28.8491 17.2532C29.1421 17.2569 29.3873 17.1721 29.5848 16.9988C29.7759 16.8189 29.8737 16.5532 29.8782 16.2017C29.8826 15.8502 29.7916 15.5821 29.6051 15.3974C29.4121 15.2126 29.1691 15.1184 28.8762 15.1147C28.5833 15.111 28.338 15.199 28.1404 15.3789C27.9363 15.5586 27.832 15.8242 27.8275 16.1757C27.8231 16.5273 27.9206 16.7955 28.1201 16.9803Z" fill="#FFB300"/>
</svg>
