<?xml version="1.0" standalone="no"?>
<!-- Designed by: Perfect Chico -->
<svg 
	xmlns="http://www.w3.org/2000/svg" 
	xmlns:xlink="http://www.w3.org/1999/xlink" 
	style="isolation:isolate" 
	viewBox="0 0 200 200" 
	width="200" 
	height="200">
	<g>
		<path 
			d=" M 123.851 70.897 L 124.766 70.229 L 124.861 69.472 L 124.957 68.716 L 124.85 68.244 L 124.381 67.35 L 123.401 66.555 L 122.624 65.474 L 122.357 64.295 L 121.419 62.508 L 120.748 61.899 L 120.759 63.127 L 118.545 61.586 L 114.595 60.625 L 112.296 61.069 L 107.859 62.663 L 109.754 62.79 L 111.138 63.015 L 113.341 63.328 L 114.778 63.789 L 115.396 64.162 L 116.067 64.771 L 116.738 65.38 L 118.026 66.361 L 118.804 67.442 L 119.528 68.286 L 120.253 69.131 L 120.87 69.504 L 121.85 70.299 L 122.83 71.094 L 123.851 70.897 Z " 
			fill-rule="evenodd" 
			fill="rgb(0,0,0)"/>
		<path 
			d=" M 129.005 74.825 L 130.282 74.578 L 131.357 74.617 L 132.486 74.891 L 133.359 75.215 L 134.338 76.01 L 135.01 76.619 L 135.116 77.091 L 135.277 77.798 L 135.936 77.179 L 136.382 75.616 L 136.062 74.201 L 135.688 72.551 L 134.655 71.52 L 133.271 71.295 L 131.994 71.541 L 130.824 72.259 L 129.909 72.928 L 128.792 73.881 L 129.005 74.825 Z " 
			fill-rule="evenodd" 
			fill="rgb(0,0,0)"/>
		<path 
			d=" M 114.478 106.911 L 113.614 107.509 L 113.136 108.339 L 113.915 108.25 L 113.32 108.857 L 113.049 110.017 L 114.001 109.218 L 113.757 110.496 L 114.069 110.989 L 114.703 111.728 L 115.213 111.629 L 115.182 112.374 L 116.028 112.58 L 117.05 112.382 L 117.568 111.729 L 118.635 110.846 L 119.135 110.996 L 119.254 110.05 L 119.104 109.095 L 117.933 108.336 L 116.328 107.723 L 114.478 106.911 Z " 
			fill="rgb(0,0,0)"/>
		<path 
			d=" M 123.075 109.559 L 124.08 108.996 L 124.316 108.274 L 125.063 107.453 L 125.693 106.408 L 126.115 105.035 L 126.825 104.344 L 127.381 103.56 L 127.641 102.649 L 128.263 102.16 L 128.345 101.344 L 128.904 100.867 L 128.76 100.526 L 128.522 99.772 L 128.987 98.882 L 128.721 97.704 L 128.316 96.797 L 127.535 95.41 L 126.662 95.086 L 125.768 95.259 L 125.116 95.323 L 124.384 95.034 L 123.753 94.602 L 123.492 94.037 L 123.242 93.224 L 122.786 92.389 L 121.903 92.313 L 120.333 92.739 L 119.093 92.856 L 118.058 92.994 L 116.103 93.186 L 113.929 93.298 L 111.742 93.351 L 110.18 93.222 L 108.846 92.925 L 107.99 92.968 L 107.072 93.329 L 106.043 94.082 L 105.471 94.499 L 104.955 95.46 L 104.772 96.418 L 104.733 97.718 L 104.715 98.521 L 104.942 99.523 L 105.055 100.609 L 105.779 101.453 L 106.063 100.353 L 106.547 100.136 L 106.475 99.227 L 107.038 97.888 L 107.516 97.058 L 107.92 96.488 L 108.686 96.34 L 109.711 96.45 L 110.397 95.948 L 110.894 95.791 L 111.307 96.142 L 112.217 96.335 L 113.343 96.303 L 114.282 95.445 L 114.583 96.187 L 115.65 96.78 L 116.89 96.664 L 117.8 96.858 L 118.529 96.84 L 119.86 96.829 L 121.126 96.831 L 121.949 97.226 L 122.401 97.754 L 122.804 98.353 L 123.219 99.011 L 123.77 99.089 L 124.6 98.929 L 125.276 98.676 L 125.654 99.464 L 125.881 100.466 L 125.943 101.623 L 125.848 102.38 L 125.449 103.564 L 124.944 104.277 L 124.348 104.884 L 123.897 105.832 L 123.48 106.343 L 123.969 106.741 L 123.408 106.911 L 123.095 107.587 L 122.792 108.014 L 123.075 109.559 Z " 
			fill="rgb(0,0,0)"/>
		<path 
			d=" M 109.489 122.613 L 109.767 122.503 L 110.927 122.525 Q 110.359 121.979 110.747 123.298 Q 111.135 124.618 111.135 124.618 Q 110.62 124.307 112.049 123.949 Q 113.479 123.592 113.479 123.592 L 114.539 121.993 Q 116.093 122.185 116.528 121.363 L 117.996 119.603 L 118.584 118.669 L 118.828 117.392 L 119.008 116.619 L 119.086 115.783 L 119.369 115.073 L 118.027 113.855 L 116.693 113.456 L 116.228 112.972 L 115.359 113.057 L 113.983 113.651 L 111.997 114.691 L 109.68 115.055 L 107.81 113.858 L 105.361 112.854 L 103.583 112.459 L 100.424 110.279 L 99.282 110.335 L 97.645 108.601 L 94.33 106.123 L 92.992 105.315 L 89.457 103.044 L 86.237 99.81 Q 85.083 98.638 83.654 98.996 Q 82.224 99.354 82.224 99.354 L 81.752 100.019 L 81.615 101.768 Q 80.738 101.035 80.371 103.731 Q 80.004 106.427 80.004 106.427 L 80.995 108.45 L 82.735 110.247 Q 81.906 110.899 83.418 112.084 Q 84.93 113.269 84.93 113.269 L 85.47 114.477 L 87.596 115.625 L 88.029 116.362 L 89.925 118.457 L 93.12 120.794 L 94.614 121.9 L 96.938 122.354 L 98.73 122.802 L 100.068 123.226 L 101.462 122.711 L 101.743 123.559 L 102.931 122.92 L 104.712 123.725 L 106.621 123.52 L 108.898 122.589 L 109.489 122.613 Z " 
			fill="rgb(0,0,0)"/>
		<path 
			d=" M 110.397 121.993 L 108.871 122.471 L 106.594 123.402 L 104.686 123.607 L 102.904 122.802 L 101.716 123.441 L 101.435 122.593 L 100.041 123.108 L 98.311 122.711 L 96.912 122.235 L 94.588 121.782 L 93.093 120.676 L 89.898 118.339 L 88.003 116.244 L 87.569 115.507 L 85.443 114.359 L 84.903 113.151 Q 84.903 113.151 83.391 111.966 Q 82.329 110.565 83.192 111.629 L 82.708 110.129 L 80.969 108.332 L 79.978 106.308 Q 79.978 106.308 80.345 103.613 Q 80.491 102.541 80.717 102.012 L 84.843 107.585 L 91.792 114.734 L 94.524 116.79 L 97.276 118.351 L 99.874 119.818 L 104.393 121.53 L 108.305 121.145 L 109.254 120.732 L 109.876 121.416 L 110.397 121.993 Z " 
			fill="rgb(11,10,10)" 
			fill-opacity="0.6"/>
		<path 
			d=" M 85.388 72.905 L 84.491 73.652 L 83.845 73.941 L 83.192 73.411 L 83.024 71.885 L 83.076 70.152 L 83.015 69.097 L 82.823 68.642 L 82.255 68.096 L 81.638 67.723 L 80.474 67.291 L 79.967 67.799 L 79.745 69.564 L 78.612 68.881 L 77.441 67.63 L 76.216 66.144 L 76.07 65.106 L 75.092 62.751 L 73.828 60.699 L 73.398 60.371 L 72.561 60.205 L 71.532 59.583 L 69.52 59.725 L 67.548 60.434 L 67.063 61.43 L 65.992 61.8 L 64.69 63.118 L 63.51 64.576 L 62.84 65.936 L 62.398 67.908 L 62.222 69.09 L 62.277 71.294 L 62.345 73.167 L 62.35 75.545 L 62.72 76.786 L 63.651 77.755 L 64.822 79.006 L 66.15 80.554 L 66.538 81.874 L 66.28 83.482 L 64.952 87.43 L 62.758 89.904 L 61.904 91.627 L 61.03 89.335 L 60.978 91.067 L 60.073 90.996 L 60.28 93.088 L 59.059 92.012 L 58.183 93.247 L 57.354 93.899 L 56.835 93.179 L 57.481 92.89 L 57.079 91.901 L 56.418 90.552 L 55.059 89.256 L 54.596 87.213 L 55.41 84.923 L 55.597 83 L 55.983 82.352 L 56.376 80.553 L 58.443 79.088 L 58.265 78.302 L 57.351 78.971 L 57.598 78.103 L 56.481 79.057 L 56.824 77.432 L 58.306 75.341 L 59.256 74.83 L 57.316 75.286 L 58.599 73.89 L 58.683 71.906 L 59.262 68.184 L 60.334 64.286 L 60.458 62.868 L 60.449 60.081 L 60.933 57.117 L 61.896 54.306 L 62.93 51.81 L 64.17 49.438 L 65.452 46.073 L 66.104 44.635 L 67.797 41.519 L 69.346 39.334 L 70.903 37.967 L 72.03 36.273 L 73.242 34.563 L 74.349 34.349 L 74.71 32.803 L 75.709 32.118 L 77.26 31.901 L 76.603 30.962 L 75.949 30.431 L 76.68 30.126 L 77.522 30.702 L 78.056 29.533 L 79.943 28.841 L 81.159 27.54 L 83.997 26.336 L 86.248 24.507 L 88.163 23.153 L 89.967 20.918 L 93.036 20.737 L 94.931 20.863 L 97.322 21.222 L 98.102 20.743 L 96.164 19.641 L 98.311 19.309 L 100.603 20.015 L 100.563 19.448 L 101.603 19.33 L 101.954 18.524 L 103.068 19.129 Q 105.438 19 103.997 18.13 Q 102.556 17.259 105.604 18.558 L 106.602 19.431 Q 109.153 20.498 108.116 19.057 Q 107.08 17.617 107.08 17.617 L 109.5 19.282 L 110.664 19.714 Q 111.334 18.355 109.446 17.078 C 107.557 15.802 111.478 17.424 112.363 18.976 Q 113.247 20.528 114.365 19.574 L 115.699 19.973 L 116.554 20.218 L 118.686 20.217 L 119.91 19.735 Q 119.044 20.23 120.868 20.042 Q 122.691 19.854 122.691 19.854 L 123.738 20.554 Q 122.153 20.614 124.757 21.916 Q 127.362 23.218 128.306 23.857 L 130.67 24.877 L 131.838 25.718 L 133.041 26.716 L 134.415 27.681 L 135.335 29.391 L 136.261 29.95 L 136.538 30.389 L 137.213 31.407 L 137.898 31.685 L 138.729 33.001 L 140.316 34.91 L 142.365 36.893 L 143.338 38.838 L 144.261 38.988 L 143.35 40.066 L 144.662 39.977 L 144.191 40.642 L 145.355 41.074 L 144.363 42.578 Q 144.111 43.036 145.105 43.501 Q 146.098 43.965 146.29 44.421 L 147.018 45.675 L 146.345 46.625 L 147.46 47.23 L 147.556 48.442 L 146.851 49.644 L 147.738 49.637 L 148.317 51.412 L 148.333 53.049 L 148.107 54.406 L 148.629 55.535 L 149.587 55.842 L 149.24 57.058 L 149.596 58.63 L 149.441 60.3 L 148.864 62.462 L 148.248 64.057 L 146.794 65.486 L 145.256 66.932 L 142.966 64.666 Q 140.564 59.552 141.173 62.634 C 141.782 65.715 141.669 66.393 142.51 66.969 Q 143.937 68.17 143.412 68.6 Q 142.887 69.029 142.058 69.681 L 140.72 68.873 L 140.838 65.077 L 140.237 68.31 L 140.444 70.403 L 139.828 71.998 L 138.566 73.882 L 139.848 70.518 L 138.975 70.194 L 137.541 73.67 L 137.384 73.372 L 137.798 72.062 L 136.553 72.056 L 136.786 69.55 L 136.522 68.781 L 135.498 70.537 L 135.618 68.709 L 135.83 67.684 L 136.379 66.183 L 138.042 65.288 L 136.797 65.283 L 135.878 65.542 L 135.376 62.932 L 134.406 61.396 L 134.485 62.53 L 134.909 64.006 L 135.179 65.595 L 134.722 65.929 L 134.478 67.206 L 134.013 66.722 L 133.657 65.15 L 133.41 62.491 L 133.455 59.939 L 133.085 58.698 L 132.331 56.547 L 130.328 53.98 L 128.624 52.341 L 125.608 50.79 L 119.618 48.665 L 116.733 48.483 L 114.093 47.024 L 111.054 44.985 L 109.874 46.443 L 107.879 50.191 L 106.508 53.163 L 103.487 54.73 L 100.089 56.206 Q 98.145 56.253 95.013 56.939 Q 91.88 57.626 91.171 58.419 L 89.3 60.748 L 88.258 62.426 L 87.37 65.96 L 86.527 68.912 L 86.157 71.198 L 85.418 70.684 L 86.146 71.938 L 85.388 72.905 Z " 
			fill="rgb(0,0,0)"/>
		<path 
			d=" M 85.577 70.138 Q 82.058 80.856 82.958 80.773 Q 83.859 80.69 85.577 102.041 L 82.958 102.041 L 80.339 99.383 L 80.339 96.724 L 77.721 96.724 L 77.721 94.065 L 77.721 88.748 L 79.03 87.419 L 76.902 85.841 L 77.066 79.776 Q 76.739 82.684 77.23 74.542 Q 77.721 66.4 77.721 66.4 L 79.521 63.243 L 85.577 70.138 Z " 
			fill="rgb(0,0,0)"/>
	</g>
		<path 
			d=" M 120.796 149.958 L 120.796 149.958 L 120.796 136.918 L 120.596 136.918 L 120.596 136.918 Q 119.956 136.918 119.796 137.098 L 119.796 137.098 L 119.796 137.098 Q 119.636 137.278 119.456 137.998 L 119.456 137.998 L 116.836 148.378 L 116.836 148.378 Q 116.736 148.838 116.056 148.838 L 116.056 148.838 L 116.056 148.838 Q 115.376 148.838 115.276 148.378 L 115.276 148.378 L 112.656 137.998 L 112.656 137.998 Q 112.476 137.278 112.316 137.098 L 112.316 137.098 L 112.316 137.098 Q 112.156 136.918 111.516 136.918 L 111.516 136.918 L 111.316 136.918 L 111.316 149.958 L 111.316 149.958 Q 111.316 150.418 110.516 150.418 L 110.516 150.418 L 110.516 150.418 Q 109.716 150.418 109.716 149.958 L 109.716 149.958 L 109.716 137.018 L 109.716 137.018 Q 109.716 136.138 109.926 135.828 L 109.926 135.828 L 109.926 135.828 Q 110.136 135.518 110.916 135.518 L 110.916 135.518 L 111.356 135.518 L 111.356 135.518 Q 112.756 135.518 113.246 135.838 L 113.246 135.838 L 113.246 135.838 Q 113.736 136.158 114.036 137.438 L 114.036 137.438 L 116.056 145.738 L 118.076 137.438 L 118.076 137.438 Q 118.376 136.158 118.866 135.838 L 118.866 135.838 L 118.866 135.838 Q 119.356 135.518 120.756 135.518 L 120.756 135.518 L 121.196 135.518 L 121.196 135.518 Q 121.976 135.518 122.186 135.828 L 122.186 135.828 L 122.186 135.828 Q 122.396 136.138 122.396 137.018 L 122.396 137.018 L 122.396 149.958 L 122.396 149.958 Q 122.396 150.418 121.596 150.418 L 121.596 150.418 L 121.596 150.418 Q 120.796 150.418 120.796 149.958 Z  M 131.856 150.318 L 131.856 150.318 L 129.516 150.318 L 129.516 150.318 Q 127.756 150.318 126.976 149.598 L 126.976 149.598 L 126.976 149.598 Q 126.196 148.878 126.196 147.158 L 126.196 147.158 L 126.196 146.998 L 126.196 146.998 Q 126.196 145.298 126.896 144.658 L 126.896 144.658 L 126.896 144.658 Q 127.596 144.018 129.396 143.838 L 129.396 143.838 L 132.856 143.498 L 132.856 141.278 L 132.856 141.278 Q 132.856 139.718 130.136 139.718 L 130.136 139.718 L 127.396 139.718 L 127.396 139.718 Q 126.996 139.718 126.996 139.018 L 126.996 139.018 L 126.996 139.018 Q 126.996 138.318 127.396 138.318 L 127.396 138.318 L 130.136 138.318 L 130.136 138.318 Q 132.096 138.318 133.276 139.068 L 133.276 139.068 L 133.276 139.068 Q 134.456 139.818 134.456 141.478 L 134.456 141.478 L 134.456 147.378 L 134.456 147.378 Q 134.456 148.678 134.916 149.438 L 134.916 149.438 L 134.916 149.438 Q 135.056 149.678 135.056 149.738 L 135.056 149.738 L 135.056 149.738 Q 135.056 149.978 134.676 150.248 L 134.676 150.248 L 134.676 150.248 Q 134.296 150.518 134.036 150.518 L 134.036 150.518 L 134.036 150.518 Q 133.596 150.518 133.226 149.688 L 133.226 149.688 L 133.226 149.688 Q 132.856 148.858 132.856 147.578 L 132.856 147.578 L 132.856 144.898 L 129.516 145.238 L 129.516 145.238 Q 128.436 145.358 128.116 145.718 L 128.116 145.718 L 128.116 145.718 Q 127.796 146.078 127.796 146.998 L 127.796 146.998 L 127.796 147.158 L 127.796 147.158 Q 127.796 148.118 128.126 148.518 L 128.126 148.518 L 128.126 148.518 Q 128.456 148.918 129.516 148.918 L 129.516 148.918 L 131.856 148.918 L 131.856 148.918 Q 132.256 148.918 132.256 149.618 L 132.256 149.618 L 132.256 149.618 Q 132.256 150.318 131.856 150.318 Z  M 138.856 149.958 L 138.856 149.958 L 138.856 141.178 L 138.856 141.178 Q 138.856 139.538 140.006 138.778 L 140.006 138.778 L 140.006 138.778 Q 141.156 138.018 143.196 138.018 L 143.196 138.018 L 143.196 138.018 Q 145.236 138.018 146.316 139.078 L 146.316 139.078 L 146.316 139.078 Q 147.376 138.018 149.416 138.018 L 149.416 138.018 L 149.416 138.018 Q 153.776 138.018 153.776 141.178 L 153.776 141.178 L 153.776 149.958 L 153.776 149.958 Q 153.776 150.418 152.976 150.418 L 152.976 150.418 L 152.976 150.418 Q 152.176 150.418 152.176 149.958 L 152.176 149.958 L 152.176 140.978 L 152.176 140.978 Q 152.176 139.418 149.646 139.418 L 149.646 139.418 L 149.646 139.418 Q 147.116 139.418 147.116 141.018 L 147.116 141.018 L 147.116 149.958 L 147.116 149.958 Q 147.116 150.418 146.316 150.418 L 146.316 150.418 L 146.316 150.418 Q 145.516 150.418 145.516 149.958 L 145.516 149.958 L 145.516 140.978 L 145.516 140.978 Q 145.516 139.418 142.986 139.418 L 142.986 139.418 L 142.986 139.418 Q 140.456 139.418 140.456 140.978 L 140.456 140.978 L 140.456 149.958 L 140.456 149.958 Q 140.456 150.418 139.656 150.418 L 139.656 150.418 L 139.656 150.418 Q 138.856 150.418 138.856 149.958 Z  M 163.236 150.318 L 163.236 150.318 L 160.896 150.318 L 160.896 150.318 Q 159.136 150.318 158.356 149.598 L 158.356 149.598 L 158.356 149.598 Q 157.576 148.878 157.576 147.158 L 157.576 147.158 L 157.576 146.998 L 157.576 146.998 Q 157.576 145.298 158.276 144.658 L 158.276 144.658 L 158.276 144.658 Q 158.976 144.018 160.776 143.838 L 160.776 143.838 L 164.236 143.498 L 164.236 141.278 L 164.236 141.278 Q 164.236 139.718 161.516 139.718 L 161.516 139.718 L 158.776 139.718 L 158.776 139.718 Q 158.376 139.718 158.376 139.018 L 158.376 139.018 L 158.376 139.018 Q 158.376 138.318 158.776 138.318 L 158.776 138.318 L 161.516 138.318 L 161.516 138.318 Q 163.476 138.318 164.656 139.068 L 164.656 139.068 L 164.656 139.068 Q 165.836 139.818 165.836 141.478 L 165.836 141.478 L 165.836 147.378 L 165.836 147.378 Q 165.836 148.678 166.296 149.438 L 166.296 149.438 L 166.296 149.438 Q 166.436 149.678 166.436 149.738 L 166.436 149.738 L 166.436 149.738 Q 166.436 149.978 166.056 150.248 L 166.056 150.248 L 166.056 150.248 Q 165.676 150.518 165.416 150.518 L 165.416 150.518 L 165.416 150.518 Q 164.976 150.518 164.606 149.688 L 164.606 149.688 L 164.606 149.688 Q 164.236 148.858 164.236 147.578 L 164.236 147.578 L 164.236 144.898 L 160.896 145.238 L 160.896 145.238 Q 159.816 145.358 159.496 145.718 L 159.496 145.718 L 159.496 145.718 Q 159.176 146.078 159.176 146.998 L 159.176 146.998 L 159.176 147.158 L 159.176 147.158 Q 159.176 148.118 159.506 148.518 L 159.506 148.518 L 159.506 148.518 Q 159.836 148.918 160.896 148.918 L 160.896 148.918 L 163.236 148.918 L 163.236 148.918 Q 163.636 148.918 163.636 149.618 L 163.636 149.618 L 163.636 149.618 Q 163.636 150.318 163.236 150.318 Z  M 43.256 147.658 L 43.256 147.658 L 43.256 145.698 L 43.256 145.698 Q 43.256 144.738 42.926 144.338 L 42.926 144.338 L 42.926 144.338 Q 42.596 143.938 41.536 143.938 L 41.536 143.938 L 39.996 143.938 L 39.996 143.938 Q 39.596 143.938 39.596 143.238 L 39.596 143.238 L 39.596 143.238 Q 39.596 142.538 39.996 142.538 L 39.996 142.538 L 41.536 142.538 L 41.536 142.538 Q 43.296 142.538 44.076 143.258 L 44.076 143.258 L 44.076 143.258 Q 44.856 143.978 44.856 145.698 L 44.856 145.698 L 44.856 147.458 L 44.856 147.458 Q 44.856 149.118 43.566 149.868 L 43.566 149.868 L 43.566 149.868 Q 42.276 150.618 40.156 150.618 L 40.156 150.618 L 40.156 150.618 Q 35.596 150.618 35.596 147.458 L 35.596 147.458 L 35.596 138.378 L 35.596 138.378 Q 35.596 136.718 36.846 135.968 L 36.846 135.968 L 36.846 135.968 Q 38.096 135.218 40.136 135.218 L 40.136 135.218 L 40.136 135.218 Q 44.556 135.218 44.556 138.378 L 44.556 138.378 L 44.556 139.478 L 44.556 139.478 Q 44.556 139.938 43.756 139.938 L 43.756 139.938 L 43.756 139.938 Q 42.956 139.938 42.956 139.478 L 42.956 139.478 L 42.956 138.178 L 42.956 138.178 Q 42.956 136.618 40.076 136.618 L 40.076 136.618 L 40.076 136.618 Q 37.196 136.618 37.196 138.178 L 37.196 138.178 L 37.196 147.658 L 37.196 147.658 Q 37.196 149.218 40.226 149.218 L 40.226 149.218 L 40.226 149.218 Q 43.256 149.218 43.256 147.658 Z  M 53.716 150.318 L 53.716 150.318 L 51.376 150.318 L 51.376 150.318 Q 49.616 150.318 48.836 149.598 L 48.836 149.598 L 48.836 149.598 Q 48.056 148.878 48.056 147.158 L 48.056 147.158 L 48.056 146.998 L 48.056 146.998 Q 48.056 145.298 48.756 144.658 L 48.756 144.658 L 48.756 144.658 Q 49.456 144.018 51.256 143.838 L 51.256 143.838 L 54.716 143.498 L 54.716 141.278 L 54.716 141.278 Q 54.716 139.718 51.996 139.718 L 51.996 139.718 L 49.256 139.718 L 49.256 139.718 Q 48.856 139.718 48.856 139.018 L 48.856 139.018 L 48.856 139.018 Q 48.856 138.318 49.256 138.318 L 49.256 138.318 L 51.996 138.318 L 51.996 138.318 Q 53.956 138.318 55.136 139.068 L 55.136 139.068 L 55.136 139.068 Q 56.316 139.818 56.316 141.478 L 56.316 141.478 L 56.316 147.378 L 56.316 147.378 Q 56.316 148.678 56.776 149.438 L 56.776 149.438 L 56.776 149.438 Q 56.916 149.678 56.916 149.738 L 56.916 149.738 L 56.916 149.738 Q 56.916 149.978 56.536 150.248 L 56.536 150.248 L 56.536 150.248 Q 56.156 150.518 55.896 150.518 L 55.896 150.518 L 55.896 150.518 Q 55.456 150.518 55.086 149.688 L 55.086 149.688 L 55.086 149.688 Q 54.716 148.858 54.716 147.578 L 54.716 147.578 L 54.716 144.898 L 51.376 145.238 L 51.376 145.238 Q 50.296 145.358 49.976 145.718 L 49.976 145.718 L 49.976 145.718 Q 49.656 146.078 49.656 146.998 L 49.656 146.998 L 49.656 147.158 L 49.656 147.158 Q 49.656 148.118 49.986 148.518 L 49.986 148.518 L 49.986 148.518 Q 50.316 148.918 51.376 148.918 L 51.376 148.918 L 53.716 148.918 L 53.716 148.918 Q 54.116 148.918 54.116 149.618 L 54.116 149.618 L 54.116 149.618 Q 54.116 150.318 53.716 150.318 Z  M 60.716 149.958 L 60.716 149.958 L 60.716 141.178 L 60.716 141.178 Q 60.716 139.538 61.866 138.778 L 61.866 138.778 L 61.866 138.778 Q 63.016 138.018 65.056 138.018 L 65.056 138.018 L 65.056 138.018 Q 67.096 138.018 68.176 139.078 L 68.176 139.078 L 68.176 139.078 Q 69.236 138.018 71.276 138.018 L 71.276 138.018 L 71.276 138.018 Q 75.636 138.018 75.636 141.178 L 75.636 141.178 L 75.636 149.958 L 75.636 149.958 Q 75.636 150.418 74.836 150.418 L 74.836 150.418 L 74.836 150.418 Q 74.036 150.418 74.036 149.958 L 74.036 149.958 L 74.036 140.978 L 74.036 140.978 Q 74.036 139.418 71.506 139.418 L 71.506 139.418 L 71.506 139.418 Q 68.976 139.418 68.976 141.018 L 68.976 141.018 L 68.976 149.958 L 68.976 149.958 Q 68.976 150.418 68.176 150.418 L 68.176 150.418 L 68.176 150.418 Q 67.376 150.418 67.376 149.958 L 67.376 149.958 L 67.376 140.978 L 67.376 140.978 Q 67.376 139.418 64.846 139.418 L 64.846 139.418 L 64.846 139.418 Q 62.316 139.418 62.316 140.978 L 62.316 140.978 L 62.316 149.958 L 62.316 149.958 Q 62.316 150.418 61.516 150.418 L 61.516 150.418 L 61.516 150.418 Q 60.716 150.418 60.716 149.958 Z  M 88.596 141.138 L 88.596 141.138 L 88.596 141.738 L 88.596 141.738 Q 88.596 143.438 87.896 144.078 L 87.896 144.078 L 87.896 144.078 Q 87.196 144.718 85.336 144.898 L 85.336 144.898 L 81.436 145.278 L 81.436 147.658 L 81.436 147.658 Q 81.436 149.218 84.036 149.218 L 84.036 149.218 L 84.036 149.218 Q 86.996 149.218 86.996 147.858 L 86.996 147.858 L 86.996 147.098 L 86.996 147.098 Q 86.996 146.638 87.796 146.638 L 87.796 146.638 L 87.796 146.638 Q 88.596 146.638 88.596 147.098 L 88.596 147.098 L 88.596 147.658 L 88.596 147.658 Q 88.596 150.618 84.196 150.618 L 84.196 150.618 L 84.196 150.618 Q 82.256 150.618 81.046 149.858 L 81.046 149.858 L 81.046 149.858 Q 79.836 149.098 79.836 147.458 L 79.836 147.458 L 79.836 141.178 L 79.836 141.178 Q 79.836 139.518 81.116 138.768 L 81.116 138.768 L 81.116 138.768 Q 82.396 138.018 84.456 138.018 L 84.456 138.018 L 84.456 138.018 Q 86.516 138.018 87.556 138.738 L 87.556 138.738 L 87.556 138.738 Q 88.596 139.458 88.596 141.138 Z  M 81.436 140.978 L 81.436 140.978 L 81.436 143.878 L 85.196 143.498 L 85.196 143.498 Q 86.336 143.378 86.666 143.018 L 86.666 143.018 L 86.666 143.018 Q 86.996 142.658 86.996 141.738 L 86.996 141.738 L 86.996 140.978 L 86.996 140.978 Q 86.996 139.418 84.216 139.418 L 84.216 139.418 L 84.216 139.418 Q 81.436 139.418 81.436 140.978 Z  M 98.116 141.978 L 98.116 141.978 L 98.116 140.978 L 98.116 140.978 Q 98.116 139.418 96.256 139.418 L 96.256 139.418 L 96.256 139.418 Q 94.396 139.418 94.396 140.978 L 94.396 140.978 L 94.396 150.158 L 94.396 150.158 Q 94.396 150.618 93.596 150.618 L 93.596 150.618 L 93.596 150.618 Q 92.796 150.618 92.796 150.158 L 92.796 150.158 L 92.796 141.178 L 92.796 141.178 Q 92.796 139.518 93.746 138.768 L 93.746 138.768 L 93.746 138.768 Q 94.696 138.018 96.256 138.018 L 96.256 138.018 L 96.256 138.018 Q 99.716 138.018 99.716 141.138 L 99.716 141.138 L 99.716 141.978 L 99.716 141.978 Q 99.716 142.438 98.916 142.438 L 98.916 142.438 L 98.916 142.438 Q 98.116 142.438 98.116 141.978 Z " 
			fill-rule="evenodd" 
			fill="rgb(0,0,0)"/>
		<path 
			d=" M 20.056 165.262 L 20.056 165.262 L 30.136 165.262 L 30.136 165.262 Q 30.616 165.262 30.616 166.102 L 30.616 166.102 L 30.616 166.102 Q 30.616 166.942 30.136 166.942 L 30.136 166.942 L 26.056 166.942 L 26.056 182.59 L 26.056 182.59 Q 26.056 183.142 25.096 183.142 L 25.096 183.142 L 25.096 183.142 Q 24.136 183.142 24.136 182.59 L 24.136 182.59 L 24.136 166.942 L 20.056 166.942 L 20.056 166.942 Q 19.576 166.942 19.576 166.102 L 19.576 166.102 L 19.576 166.102 Q 19.576 165.262 20.056 165.262 Z  M 41.968 179.83 L 41.968 179.83 L 41.968 171.814 L 41.968 171.814 Q 41.968 169.942 38.692 169.942 L 38.692 169.942 L 38.692 169.942 Q 35.416 169.942 35.416 171.814 L 35.416 171.814 L 35.416 179.83 L 35.416 179.83 Q 35.416 181.702 38.692 181.702 L 38.692 181.702 L 38.692 181.702 Q 41.968 181.702 41.968 179.83 Z  M 43.888 172.054 L 43.888 172.054 L 43.888 179.59 L 43.888 179.59 Q 43.888 181.582 42.472 182.482 L 42.472 182.482 L 42.472 182.482 Q 41.056 183.382 38.704 183.382 L 38.704 183.382 L 38.704 183.382 Q 36.352 183.382 34.924 182.482 L 34.924 182.482 L 34.924 182.482 Q 33.496 181.582 33.496 179.59 L 33.496 179.59 L 33.496 172.054 L 33.496 172.054 Q 33.496 170.062 34.912 169.162 L 34.912 169.162 L 34.912 169.162 Q 36.328 168.262 38.68 168.262 L 38.68 168.262 L 38.68 168.262 Q 41.032 168.262 42.46 169.162 L 42.46 169.162 L 42.46 169.162 Q 43.888 170.062 43.888 172.054 Z  M 59.32 169.054 L 59.32 169.054 L 59.32 179.59 L 59.32 179.59 Q 59.32 181.582 57.892 182.482 L 57.892 182.482 L 57.892 182.482 Q 56.464 183.382 54.112 183.382 L 54.112 183.382 L 54.112 183.382 Q 51.76 183.382 50.344 182.482 L 50.344 182.482 L 50.344 182.482 Q 48.928 181.582 48.928 179.59 L 48.928 179.59 L 48.928 169.054 L 48.928 169.054 Q 48.928 168.502 49.888 168.502 L 49.888 168.502 L 49.888 168.502 Q 50.848 168.502 50.848 169.054 L 50.848 169.054 L 50.848 179.83 L 50.848 179.83 Q 50.848 181.702 54.124 181.702 L 54.124 181.702 L 54.124 181.702 Q 57.4 181.702 57.4 179.83 L 57.4 179.83 L 57.4 169.054 L 57.4 169.054 Q 57.4 168.502 58.36 168.502 L 58.36 168.502 L 58.36 168.502 Q 59.32 168.502 59.32 169.054 Z  M 70.984 173.014 L 70.984 173.014 L 70.984 171.814 L 70.984 171.814 Q 70.984 169.942 68.752 169.942 L 68.752 169.942 L 68.752 169.942 Q 66.52 169.942 66.52 171.814 L 66.52 171.814 L 66.52 182.83 L 66.52 182.83 Q 66.52 183.382 65.56 183.382 L 65.56 183.382 L 65.56 183.382 Q 64.6 183.382 64.6 182.83 L 64.6 182.83 L 64.6 172.054 L 64.6 172.054 Q 64.6 170.062 65.74 169.162 L 65.74 169.162 L 65.74 169.162 Q 66.88 168.262 68.752 168.262 L 68.752 168.262 L 68.752 168.262 Q 72.904 168.262 72.904 172.006 L 72.904 172.006 L 72.904 173.014 L 72.904 173.014 Q 72.904 173.566 71.944 173.566 L 71.944 173.566 L 71.944 173.566 Q 70.984 173.566 70.984 173.014 Z  M 86.416 172.054 L 86.416 172.054 L 86.416 182.59 L 86.416 182.59 Q 86.416 183.142 85.456 183.142 L 85.456 183.142 L 85.456 183.142 Q 84.496 183.142 84.496 182.59 L 84.496 182.59 L 84.496 171.814 L 84.496 171.814 Q 84.496 169.942 81.22 169.942 L 81.22 169.942 L 81.22 169.942 Q 77.944 169.942 77.944 171.814 L 77.944 171.814 L 77.944 182.59 L 77.944 182.59 Q 77.944 183.142 76.984 183.142 L 76.984 183.142 L 76.984 183.142 Q 76.024 183.142 76.024 182.59 L 76.024 182.59 L 76.024 172.054 L 76.024 172.054 Q 76.024 170.062 77.44 169.162 L 77.44 169.162 L 77.44 169.162 Q 78.856 168.262 81.208 168.262 L 81.208 168.262 L 81.208 168.262 Q 83.56 168.262 84.988 169.162 L 84.988 169.162 L 84.988 169.162 Q 86.416 170.062 86.416 172.054 Z  M 101.968 172.006 L 101.968 172.006 L 101.968 172.726 L 101.968 172.726 Q 101.968 174.766 101.128 175.534 L 101.128 175.534 L 101.128 175.534 Q 100.288 176.302 98.056 176.518 L 98.056 176.518 L 93.376 176.974 L 93.376 179.83 L 93.376 179.83 Q 93.376 181.702 96.496 181.702 L 96.496 181.702 L 96.496 181.702 Q 100.048 181.702 100.048 180.07 L 100.048 180.07 L 100.048 179.158 L 100.048 179.158 Q 100.048 178.606 101.008 178.606 L 101.008 178.606 L 101.008 178.606 Q 101.968 178.606 101.968 179.158 L 101.968 179.158 L 101.968 179.83 L 101.968 179.83 Q 101.968 183.382 96.688 183.382 L 96.688 183.382 L 96.688 183.382 Q 94.36 183.382 92.908 182.47 L 92.908 182.47 L 92.908 182.47 Q 91.456 181.558 91.456 179.59 L 91.456 179.59 L 91.456 172.054 L 91.456 172.054 Q 91.456 170.062 92.992 169.162 L 92.992 169.162 L 92.992 169.162 Q 94.528 168.262 97 168.262 L 97 168.262 L 97 168.262 Q 99.472 168.262 100.72 169.126 L 100.72 169.126 L 100.72 169.126 Q 101.968 169.99 101.968 172.006 Z  M 93.376 171.814 L 93.376 171.814 L 93.376 175.294 L 97.888 174.838 L 97.888 174.838 Q 99.256 174.694 99.652 174.262 L 99.652 174.262 L 99.652 174.262 Q 100.048 173.83 100.048 172.726 L 100.048 172.726 L 100.048 171.814 L 100.048 171.814 Q 100.048 169.942 96.712 169.942 L 96.712 169.942 L 96.712 169.942 Q 93.376 169.942 93.376 171.814 Z  M 107.008 182.59 L 107.008 182.59 L 107.008 172.054 L 107.008 172.054 Q 107.008 170.086 108.388 169.174 L 108.388 169.174 L 108.388 169.174 Q 109.768 168.262 112.216 168.262 L 112.216 168.262 L 112.216 168.262 Q 114.664 168.262 115.96 169.534 L 115.96 169.534 L 115.96 169.534 Q 117.232 168.262 119.68 168.262 L 119.68 168.262 L 119.68 168.262 Q 124.912 168.262 124.912 172.054 L 124.912 172.054 L 124.912 182.59 L 124.912 182.59 Q 124.912 183.142 123.952 183.142 L 123.952 183.142 L 123.952 183.142 Q 122.992 183.142 122.992 182.59 L 122.992 182.59 L 122.992 171.814 L 122.992 171.814 Q 122.992 169.942 119.956 169.942 L 119.956 169.942 L 119.956 169.942 Q 116.92 169.942 116.92 171.862 L 116.92 171.862 L 116.92 182.59 L 116.92 182.59 Q 116.92 183.142 115.96 183.142 L 115.96 183.142 L 115.96 183.142 Q 115 183.142 115 182.59 L 115 182.59 L 115 171.814 L 115 171.814 Q 115 169.942 111.964 169.942 L 111.964 169.942 L 111.964 169.942 Q 108.928 169.942 108.928 171.814 L 108.928 171.814 L 108.928 182.59 L 108.928 182.59 Q 108.928 183.142 107.968 183.142 L 107.968 183.142 L 107.968 183.142 Q 107.008 183.142 107.008 182.59 Z  M 140.464 172.006 L 140.464 172.006 L 140.464 172.726 L 140.464 172.726 Q 140.464 174.766 139.624 175.534 L 139.624 175.534 L 139.624 175.534 Q 138.784 176.302 136.552 176.518 L 136.552 176.518 L 131.872 176.974 L 131.872 179.83 L 131.872 179.83 Q 131.872 181.702 134.992 181.702 L 134.992 181.702 L 134.992 181.702 Q 138.544 181.702 138.544 180.07 L 138.544 180.07 L 138.544 179.158 L 138.544 179.158 Q 138.544 178.606 139.504 178.606 L 139.504 178.606 L 139.504 178.606 Q 140.464 178.606 140.464 179.158 L 140.464 179.158 L 140.464 179.83 L 140.464 179.83 Q 140.464 183.382 135.184 183.382 L 135.184 183.382 L 135.184 183.382 Q 132.856 183.382 131.404 182.47 L 131.404 182.47 L 131.404 182.47 Q 129.952 181.558 129.952 179.59 L 129.952 179.59 L 129.952 172.054 L 129.952 172.054 Q 129.952 170.062 131.488 169.162 L 131.488 169.162 L 131.488 169.162 Q 133.024 168.262 135.496 168.262 L 135.496 168.262 L 135.496 168.262 Q 137.968 168.262 139.216 169.126 L 139.216 169.126 L 139.216 169.126 Q 140.464 169.99 140.464 172.006 Z  M 131.872 171.814 L 131.872 171.814 L 131.872 175.294 L 136.384 174.838 L 136.384 174.838 Q 137.752 174.694 138.148 174.262 L 138.148 174.262 L 138.148 174.262 Q 138.544 173.83 138.544 172.726 L 138.544 172.726 L 138.544 171.814 L 138.544 171.814 Q 138.544 169.942 135.208 169.942 L 135.208 169.942 L 135.208 169.942 Q 131.872 169.942 131.872 171.814 Z  M 155.896 172.054 L 155.896 172.054 L 155.896 182.59 L 155.896 182.59 Q 155.896 183.142 154.936 183.142 L 154.936 183.142 L 154.936 183.142 Q 153.976 183.142 153.976 182.59 L 153.976 182.59 L 153.976 171.814 L 153.976 171.814 Q 153.976 169.942 150.7 169.942 L 150.7 169.942 L 150.7 169.942 Q 147.424 169.942 147.424 171.814 L 147.424 171.814 L 147.424 182.59 L 147.424 182.59 Q 147.424 183.142 146.464 183.142 L 146.464 183.142 L 146.464 183.142 Q 145.504 183.142 145.504 182.59 L 145.504 182.59 L 145.504 172.054 L 145.504 172.054 Q 145.504 170.062 146.92 169.162 L 146.92 169.162 L 146.92 169.162 Q 148.336 168.262 150.688 168.262 L 150.688 168.262 L 150.688 168.262 Q 153.04 168.262 154.468 169.162 L 154.468 169.162 L 154.468 169.162 Q 155.896 170.062 155.896 172.054 Z  M 164.056 165.814 L 164.056 165.814 L 164.056 168.622 L 166.576 168.622 L 166.576 168.622 Q 167.056 168.622 167.056 169.462 L 167.056 169.462 L 167.056 169.462 Q 167.056 170.302 166.576 170.302 L 166.576 170.302 L 164.056 170.302 L 164.056 180.214 L 164.056 180.214 Q 164.056 180.982 164.416 181.642 L 164.416 181.642 L 164.416 181.642 Q 164.776 182.302 164.776 182.326 L 164.776 182.326 L 164.776 182.326 Q 164.776 182.614 164.32 182.938 L 164.32 182.938 L 164.32 182.938 Q 163.864 183.262 163.552 183.262 L 163.552 183.262 L 163.552 183.262 Q 163.048 183.262 162.592 182.386 L 162.592 182.386 L 162.592 182.386 Q 162.136 181.51 162.136 180.454 L 162.136 180.454 L 162.136 170.302 L 160.216 170.302 L 160.216 170.302 Q 159.736 170.302 159.736 169.462 L 159.736 169.462 L 159.736 169.462 Q 159.736 168.622 160.216 168.622 L 160.216 168.622 L 162.136 168.622 L 162.136 165.814 L 162.136 165.814 Q 162.136 165.262 163.096 165.262 L 163.096 165.262 L 163.096 165.262 Q 164.056 165.262 164.056 165.814 Z  M 178.456 172.774 L 178.456 172.774 L 178.456 171.838 L 178.456 171.838 Q 178.456 169.942 175.36 169.942 L 175.36 169.942 L 175.36 169.942 Q 174.04 169.942 173.2 170.374 L 173.2 170.374 L 173.2 170.374 Q 172.36 170.806 172.36 171.742 L 172.36 171.742 L 172.36 172.27 L 172.36 172.27 Q 172.36 173.566 172.696 173.962 L 172.696 173.962 L 172.696 173.962 Q 173.032 174.358 174.136 174.622 L 174.136 174.622 L 176.224 175.15 L 176.224 175.15 Q 179.2 175.918 179.752 176.638 L 179.752 176.638 L 179.752 176.638 Q 180.424 177.526 180.424 178.99 L 180.424 178.99 L 180.424 179.854 L 180.424 179.854 Q 180.424 181.726 178.972 182.554 L 178.972 182.554 L 178.972 182.554 Q 177.52 183.382 175.216 183.382 L 175.216 183.382 L 175.216 183.382 Q 171.472 183.382 170.464 181.486 L 170.464 181.486 L 170.464 181.486 Q 170.056 180.694 170.056 179.566 L 170.056 179.566 L 170.056 178.798 L 170.056 178.798 Q 170.056 178.486 170.272 178.378 L 170.272 178.378 L 170.272 178.378 Q 170.488 178.27 171.016 178.27 L 171.016 178.27 L 171.016 178.27 Q 171.952 178.27 171.952 178.87 L 171.952 178.87 L 171.952 179.95 L 171.952 179.95 Q 171.952 180.91 172.792 181.306 L 172.792 181.306 L 172.792 181.306 Q 173.632 181.702 175.24 181.702 L 175.24 181.702 L 175.24 181.702 Q 178.528 181.702 178.528 180.022 L 178.528 180.022 L 178.528 178.75 L 178.528 178.75 Q 178.528 178.006 177.964 177.598 L 177.964 177.598 L 177.964 177.598 Q 177.4 177.19 176.032 176.83 L 176.032 176.83 L 173.92 176.302 L 173.92 176.302 Q 171.784 175.774 171.124 175.042 L 171.124 175.042 L 171.124 175.042 Q 170.464 174.31 170.464 172.198 L 170.464 172.198 L 170.464 171.91 L 170.464 171.91 Q 170.512 169.99 171.832 169.126 L 171.832 169.126 L 171.832 169.126 Q 173.152 168.262 175.312 168.262 L 175.312 168.262 L 175.312 168.262 Q 180.352 168.262 180.352 172.006 L 180.352 172.006 L 180.352 172.846 L 180.352 172.846 Q 180.352 173.35 179.404 173.35 L 179.404 173.35 L 179.404 173.35 Q 178.456 173.35 178.456 172.774 Z " 
			fill-rule="evenodd" 
			fill="rgb(0,0,0)"/>
</svg>