<svg width="120" height="45" viewBox="0 0 120 45" fill="none" xmlns="http://www.w3.org/2000/svg">
<path d="M21.6406 26.125C21.2083 25.5573 20.9922 24.8047 20.9922 23.8672C20.9922 22.8099 21.2109 21.9974 21.6484 21.4297C22.0859 20.862 22.6615 20.5781 23.375 20.5781C24.1042 20.5781 24.6875 20.8672 25.125 21.4453C25.5677 22.0182 25.7891 22.7682 25.7891 23.6953C25.7891 24.7318 25.5729 25.5391 25.1406 26.1172C24.7083 26.6901 24.125 26.9766 23.3906 26.9766C22.6615 26.9766 22.0781 26.6927 21.6406 26.125Z" fill="#FFB300"/>
<path fill-rule="evenodd" clip-rule="evenodd" d="M6 0C2.68629 0 0 2.68629 0 6V39C0 42.3137 2.68629 45 6 45H114C117.314 45 120 42.3137 120 39V6C120 2.68629 117.314 0 114 0H6ZM17.5938 16.625H16.0859V24.7031C16.0807 25.4062 15.8854 25.9531 15.5 26.3438C15.1198 26.7344 14.6198 26.9297 14 26.9297C13.3229 26.9297 12.8047 26.7474 12.4453 26.3828C12.0911 26.0182 11.9141 25.5104 11.9141 24.8594H10.4141C10.4141 25.901 10.7292 26.7109 11.3594 27.2891C11.9896 27.8672 12.8698 28.1562 14 28.1562C15.0885 28.1562 15.9583 27.849 16.6094 27.2344C17.2656 26.6198 17.5938 25.7682 17.5938 24.6797V16.625ZM20.0234 21.4609C19.7005 22.1224 19.5391 22.8672 19.5391 23.6953V23.7969C19.5391 25.1094 19.8932 26.1641 20.6016 26.9609C21.3151 27.7578 22.2448 28.1562 23.3906 28.1562C24.151 28.1562 24.8229 27.974 25.4062 27.6094C25.9948 27.2448 26.4453 26.737 26.7578 26.0859C27.0755 25.4297 27.2344 24.6901 27.2344 23.8672V23.7656C27.2344 22.4427 26.8776 21.3828 26.1641 20.5859C25.4557 19.7891 24.526 19.3906 23.375 19.3906C22.6302 19.3906 21.9661 19.5703 21.3828 19.9297C20.8047 20.2891 20.3516 20.7995 20.0234 21.4609ZM29.1719 28H30.6172V19.5469H29.1719V28ZM29.2656 16.7109C29.125 16.8724 29.0547 17.0703 29.0547 17.3047C29.0547 17.5391 29.125 17.7344 29.2656 17.8906C29.4115 18.0469 29.625 18.125 29.9062 18.125C30.1875 18.125 30.401 18.0469 30.5469 17.8906C30.6927 17.7344 30.7656 17.5391 30.7656 17.3047C30.7656 17.0703 30.6927 16.8724 30.5469 16.7109C30.401 16.5495 30.1875 16.4688 29.9062 16.4688C29.625 16.4688 29.4115 16.5495 29.2656 16.7109ZM34.3516 20.6094L34.3047 19.5469H32.9375V28H34.3828V21.9766C34.5807 21.5703 34.8568 21.2422 35.2109 20.9922C35.5651 20.7422 35.9766 20.6172 36.4453 20.6172C37.0234 20.6172 37.4479 20.763 37.7188 21.0547C37.9948 21.3464 38.1354 21.7969 38.1406 22.4062V28H39.5859V22.4141C39.5703 20.3984 38.6693 19.3906 36.8828 19.3906C35.8411 19.3906 34.9974 19.7969 34.3516 20.6094ZM54.8438 19.5469L53.2188 26.0078L51.2109 19.5469H50.0469L48.0781 25.875L46.4141 19.5469H44.9766L47.4297 28H48.6016L50.6016 21.5938L52.6562 28H53.8281L56.2891 19.5469H54.8438ZM57.8906 28H59.3359V19.5469H57.8906V28ZM57.9844 16.7109C57.8438 16.8724 57.7734 17.0703 57.7734 17.3047C57.7734 17.5391 57.8438 17.7344 57.9844 17.8906C58.1302 18.0469 58.3438 18.125 58.625 18.125C58.9062 18.125 59.1198 18.0469 59.2656 17.8906C59.4115 17.7344 59.4844 17.5391 59.4844 17.3047C59.4844 17.0703 59.4115 16.8724 59.2656 16.7109C59.1198 16.5495 58.9062 16.4688 58.625 16.4688C58.3438 16.4688 58.1302 16.5495 57.9844 16.7109ZM63.6172 19.5469V17.5H62.1719V19.5469H60.6328V20.6641H62.1719V25.9062C62.1719 26.625 62.3359 27.1797 62.6641 27.5703C62.9922 27.9609 63.4792 28.1562 64.125 28.1562C64.4844 28.1562 64.8542 28.1042 65.2344 28V26.8281C64.9427 26.8906 64.7135 26.9219 64.5469 26.9219C64.2083 26.9219 63.9688 26.8385 63.8281 26.6719C63.6875 26.5 63.6172 26.2448 63.6172 25.9062V20.6641H65.1953V19.5469H63.6172ZM70.8359 19.3906C69.8099 19.3906 68.9766 19.7839 68.3359 20.5703V16H66.8906V28H68.3359V21.9766C68.5339 21.5703 68.8099 21.2422 69.1641 20.9922C69.5182 20.7422 69.9297 20.6172 70.3984 20.6172C70.9766 20.6172 71.401 20.763 71.6719 21.0547C71.9479 21.3464 72.0885 21.7969 72.0938 22.4062V28H73.5391V22.4141C73.5234 20.3984 72.6224 19.3906 70.8359 19.3906ZM87.9062 24.3594V16.625H86.3984V24.3359C86.3984 25.1589 86.1719 25.7969 85.7188 26.25C85.2708 26.7031 84.6224 26.9297 83.7734 26.9297C82.9349 26.9297 82.2891 26.7031 81.8359 26.25C81.3828 25.7917 81.1562 25.151 81.1562 24.3281V16.625H79.6719V24.375C79.6823 25.5521 80.0573 26.4766 80.7969 27.1484C81.5365 27.8203 82.5286 28.1562 83.7734 28.1562L84.1719 28.1406C85.3177 28.0573 86.224 27.6745 86.8906 26.9922C87.5625 26.3099 87.901 25.4323 87.9062 24.3594ZM90.8125 21.5703C91.401 22.1068 92.3385 22.5599 93.625 22.9297C94.651 23.2266 95.3594 23.5286 95.75 23.8359C96.1406 24.138 96.3359 24.5677 96.3359 25.125C96.3359 25.6823 96.125 26.1224 95.7031 26.4453C95.2812 26.7682 94.6745 26.9297 93.8828 26.9297C93.0339 26.9297 92.3542 26.7318 91.8438 26.3359C91.3385 25.9349 91.0859 25.3906 91.0859 24.7031H89.5781C89.5781 25.3646 89.7604 25.9557 90.125 26.4766C90.4948 26.9974 91.0182 27.4089 91.6953 27.7109C92.3724 28.0078 93.1016 28.1562 93.8828 28.1562C95.0859 28.1562 96.0469 27.8802 96.7656 27.3281C97.4844 26.7708 97.8438 26.0312 97.8438 25.1094C97.8438 24.5312 97.7135 24.0286 97.4531 23.6016C97.1979 23.1745 96.8021 22.8021 96.2656 22.4844C95.7344 22.1615 94.9948 21.8672 94.0469 21.6016C93.1042 21.3359 92.4349 21.0443 92.0391 20.7266C91.6484 20.4036 91.4531 20.0104 91.4531 19.5469C91.4531 18.9688 91.6589 18.5182 92.0703 18.1953C92.487 17.8672 93.0651 17.7031 93.8047 17.7031C94.6016 17.7031 95.2188 17.901 95.6562 18.2969C96.0938 18.6875 96.3125 19.2266 96.3125 19.9141H97.8203C97.8203 19.2839 97.651 18.7031 97.3125 18.1719C96.9792 17.6406 96.5052 17.224 95.8906 16.9219C95.2812 16.6198 94.5859 16.4688 93.8047 16.4688C92.6589 16.4688 91.7266 16.763 91.0078 17.3516C90.2943 17.9349 89.9375 18.6745 89.9375 19.5703C89.9375 20.362 90.2292 21.0286 90.8125 21.5703ZM105.422 23.3281C105.292 23.6875 105.221 24.1771 105.211 24.7969H106.656C106.656 24.0052 106.846 23.3984 107.227 22.9766L108.078 22.1328C108.922 21.2474 109.344 20.349 109.344 19.4375C109.344 18.5156 109.068 17.7917 108.516 17.2656C107.969 16.7344 107.203 16.4688 106.219 16.4688C105.271 16.4688 104.5 16.7292 103.906 17.25C103.318 17.7656 103.018 18.4453 103.008 19.2891H104.453C104.453 18.8151 104.615 18.4375 104.938 18.1562C105.26 17.875 105.688 17.7344 106.219 17.7344C106.766 17.7344 107.182 17.8906 107.469 18.2031C107.755 18.5104 107.898 18.9375 107.898 19.4844C107.898 20.0521 107.68 20.5833 107.242 21.0781L106.219 22.1328C105.818 22.5703 105.552 22.9688 105.422 23.3281ZM105.359 26.6875C105.219 26.8438 105.148 27.0391 105.148 27.2734C105.148 27.5078 105.219 27.7031 105.359 27.8594C105.505 28.0104 105.719 28.0859 106 28.0859C106.281 28.0859 106.495 28.0104 106.641 27.8594C106.786 27.7031 106.859 27.5078 106.859 27.2734C106.859 27.0391 106.786 26.8438 106.641 26.6875C106.495 26.526 106.281 26.4453 106 26.4453C105.719 26.4453 105.505 26.526 105.359 26.6875Z" fill="#FFB300"/>
</svg>
