<svg width="108" height="53" viewBox="0 0 108 53" fill="none" xmlns="http://www.w3.org/2000/svg">
<g filter="url(#filter0_d)">
<path d="M43.6328 21.5996C44.0605 22.2031 44.2744 23.0586 44.2744 24.166C44.2744 25.3789 44.0576 26.2871 43.624 26.8906C43.1904 27.4941 42.584 27.7959 41.8047 27.7959C40.75 27.7959 39.9736 27.2979 39.4756 26.3018V22.1885C39.9443 21.1924 40.7148 20.6943 41.7871 20.6943C42.5898 20.6943 43.2051 20.9961 43.6328 21.5996Z" fill="#FFB300"/>
<path fill-rule="evenodd" clip-rule="evenodd" d="M8 0C5.79086 0 4 1.79086 4 4V41C4 43.2091 5.79086 45 8 45H100C102.209 45 104 43.2091 104 41V4C104 1.79086 102.209 0 100 0H8ZM18.0918 21.7666C18.7539 22.3701 19.8086 22.8799 21.2559 23.2959C22.4102 23.6299 23.207 23.9697 23.6465 24.3154C24.0859 24.6553 24.3057 25.1387 24.3057 25.7656C24.3057 26.3926 24.0684 26.8877 23.5938 27.251C23.1191 27.6143 22.4365 27.7959 21.5459 27.7959C20.5908 27.7959 19.8262 27.5732 19.252 27.1279C18.6836 26.6768 18.3994 26.0645 18.3994 25.291H16.7031C16.7031 26.0352 16.9082 26.7002 17.3184 27.2861C17.7344 27.8721 18.3232 28.335 19.085 28.6748C19.8467 29.0088 20.667 29.1758 21.5459 29.1758C22.8994 29.1758 23.9805 28.8652 24.7891 28.2441C25.5977 27.6172 26.002 26.7852 26.002 25.748C26.002 25.0977 25.8555 24.5322 25.5625 24.0518C25.2754 23.5713 24.8301 23.1523 24.2266 22.7949C23.6289 22.4316 22.7969 22.1006 21.7305 21.8018C20.6699 21.5029 19.917 21.1748 19.4717 20.8174C19.0322 20.4541 18.8125 20.0117 18.8125 19.4902C18.8125 18.8398 19.0439 18.333 19.5068 17.9697C19.9756 17.6006 20.626 17.416 21.458 17.416C22.3545 17.416 23.0488 17.6387 23.541 18.084C24.0332 18.5234 24.2793 19.1299 24.2793 19.9033H25.9756C25.9756 19.1943 25.7852 18.541 25.4043 17.9434C25.0293 17.3457 24.4961 16.877 23.8047 16.5371C23.1191 16.1973 22.3369 16.0273 21.458 16.0273C20.1689 16.0273 19.1201 16.3584 18.3115 17.0205C17.5088 17.6768 17.1074 18.5088 17.1074 19.5166C17.1074 20.4072 17.4355 21.1572 18.0918 21.7666ZM31.0029 29.1758C32.2275 29.1758 33.1562 28.8037 33.7891 28.0596L33.8242 29H35.3711V19.4902H33.7451V26.4072C33.335 27.333 32.5088 27.7959 31.2666 27.7959C30.0947 27.7959 29.5088 27.0752 29.5088 25.6338V19.4902H27.8828V25.6777C27.8887 26.832 28.1553 27.7051 28.6826 28.2969C29.2158 28.8828 29.9893 29.1758 31.0029 29.1758ZM44.8984 27.8574C45.5664 26.9727 45.9004 25.8037 45.9004 24.3506V24.21C45.9004 22.6924 45.5693 21.4971 44.9072 20.624C44.251 19.751 43.3457 19.3145 42.1914 19.3145C41.0371 19.3145 40.1318 19.7217 39.4756 20.5361V15.5H37.8496V29H39.3438L39.4229 27.9014C40.0791 28.751 41.0078 29.1758 42.209 29.1758C43.334 29.1758 44.2305 28.7363 44.8984 27.8574ZM49.5303 20.5449L49.4863 19.4902H47.9482V29H49.5742V22.0566C49.9668 21.1484 50.6963 20.6943 51.7627 20.6943C53.1162 20.6943 53.793 21.3857 53.793 22.7686V29H55.4277V22.6895C55.4922 22.0801 55.7236 21.5967 56.1221 21.2393C56.5205 20.876 57.0215 20.6943 57.625 20.6943C58.3574 20.6943 58.8789 20.8643 59.1895 21.2041C59.5 21.5381 59.6553 22.0449 59.6553 22.7246V29H61.2812V22.6279C61.2461 20.4189 60.1855 19.3145 58.0996 19.3145C57.4082 19.3145 56.8076 19.4551 56.2979 19.7363C55.7939 20.0176 55.3838 20.3867 55.0674 20.8438C54.5869 19.8242 53.6816 19.3145 52.3516 19.3145C51.168 19.3145 50.2275 19.7246 49.5303 20.5449ZM63.8828 29H65.5088V19.4902H63.8828V29ZM63.9883 16.2998C63.8301 16.4814 63.751 16.7041 63.751 16.9678C63.751 17.2314 63.8301 17.4512 63.9883 17.627C64.1523 17.8027 64.3926 17.8906 64.709 17.8906C65.0254 17.8906 65.2656 17.8027 65.4297 17.627C65.5938 17.4512 65.6758 17.2314 65.6758 16.9678C65.6758 16.7041 65.5938 16.4814 65.4297 16.2998C65.2656 16.1182 65.0254 16.0273 64.709 16.0273C64.3926 16.0273 64.1523 16.1182 63.9883 16.2998ZM70.3252 19.4902V17.1875H68.6992V19.4902H66.9678V20.7471H68.6992V26.6445C68.6992 27.4531 68.8838 28.0771 69.2529 28.5166C69.6221 28.9561 70.1699 29.1758 70.8965 29.1758C71.3008 29.1758 71.7168 29.1172 72.1445 29V27.6816C71.8164 27.752 71.5586 27.7871 71.3711 27.7871C70.9902 27.7871 70.7207 27.6934 70.5625 27.5059C70.4043 27.3125 70.3252 27.0254 70.3252 26.6445V20.7471H72.1006V19.4902H70.3252ZM74.2891 27.4443C74.125 27.6318 74.043 27.8662 74.043 28.1475C74.043 28.417 74.125 28.6426 74.2891 28.8242C74.459 29.0059 74.7109 29.0967 75.0449 29.0967C75.3789 29.0967 75.6309 29.0059 75.8008 28.8242C75.9766 28.6426 76.0645 28.417 76.0645 28.1475C76.0645 27.8662 75.9766 27.6318 75.8008 27.4443C75.6309 27.2568 75.3789 27.1631 75.0449 27.1631C74.7109 27.1631 74.459 27.2568 74.2891 27.4443ZM79.0352 27.4443C78.8711 27.6318 78.7891 27.8662 78.7891 28.1475C78.7891 28.417 78.8711 28.6426 79.0352 28.8242C79.2051 29.0059 79.457 29.0967 79.791 29.0967C80.125 29.0967 80.377 29.0059 80.5469 28.8242C80.7227 28.6426 80.8105 28.417 80.8105 28.1475C80.8105 27.8662 80.7227 27.6318 80.5469 27.4443C80.377 27.2568 80.125 27.1631 79.791 27.1631C79.457 27.1631 79.2051 27.2568 79.0352 27.4443ZM83.8516 25.3877H85.3193L85.4424 16.2031H83.7373L83.8516 25.3877ZM83.9131 27.5234C83.7549 27.6992 83.6758 27.9189 83.6758 28.1826C83.6758 28.4463 83.7549 28.666 83.9131 28.8418C84.0771 29.0117 84.3174 29.0967 84.6338 29.0967C84.9502 29.0967 85.1904 29.0117 85.3545 28.8418C85.5186 28.666 85.6006 28.4463 85.6006 28.1826C85.6006 27.9189 85.5186 27.6992 85.3545 27.5234C85.1904 27.3418 84.9502 27.251 84.6338 27.251C84.3174 27.251 84.0771 27.3418 83.9131 27.5234ZM88.4922 25.3877H89.96L90.083 16.2031H88.3779L88.4922 25.3877ZM88.5537 27.5234C88.3955 27.6992 88.3164 27.9189 88.3164 28.1826C88.3164 28.4463 88.3955 28.666 88.5537 28.8418C88.7178 29.0117 88.958 29.0967 89.2744 29.0967C89.5908 29.0967 89.8311 29.0117 89.9951 28.8418C90.1592 28.666 90.2412 28.4463 90.2412 28.1826C90.2412 27.9189 90.1592 27.6992 89.9951 27.5234C89.8311 27.3418 89.5908 27.251 89.2744 27.251C88.958 27.251 88.7178 27.3418 88.5537 27.5234Z" fill="#FFB300"/>
</g>
<defs>
<filter id="filter0_d" x="0" y="0" width="108" height="53" filterUnits="userSpaceOnUse" color-interpolation-filters="sRGB">
<feFlood flood-opacity="0" result="BackgroundImageFix"/>
<feColorMatrix in="SourceAlpha" type="matrix" values="0 0 0 0 0 0 0 0 0 0 0 0 0 0 0 0 0 0 127 0"/>
<feOffset dy="4"/>
<feGaussianBlur stdDeviation="2"/>
<feColorMatrix type="matrix" values="0 0 0 0 0 0 0 0 0 0 0 0 0 0 0 0 0 0 0.25 0"/>
<feBlend mode="normal" in2="BackgroundImageFix" result="effect1_dropShadow"/>
<feBlend mode="normal" in="SourceGraphic" in2="effect1_dropShadow" result="shape"/>
</filter>
</defs>
</svg>
